<svg xmlns="http://www.w3.org/2000/svg" viewBox="0 0 48 48"><defs><style>.cls-1{fill:#2e2e2e;}.cls-2{fill:none;}</style></defs><title>Asset 1</title><g id="Layer_2" data-name="Layer 2"><g id="Layer_1-2" data-name="Layer 1"><path class="cls-1" d="M11.89,24.19l-.09,0a1,1,0,0,1-.45-.48,1.68,1.68,0,0,1-.22-.81l0-.13a1.37,1.37,0,0,1,.15-.6l.09-.16a1.88,1.88,0,0,1,.16-.23.28.28,0,0,0,.06-.26l-.06-.18a2.31,2.31,0,0,1-.1-.64l0-.13a1,1,0,0,1,.22-.65l.11-.13a.57.57,0,0,1,.32-.22.3.3,0,0,0,.19-.27l0-.36a1,1,0,0,1,.36-.76l.26-.19a.78.78,0,0,0,.14-.2.25.25,0,0,0,.06-.21c0-.11,0-.14.05-.15s.29,0,.36-.05l.14-.18.39-.43a.41.41,0,0,0,.08-.45L14,16a.12.12,0,0,1,0-.16.28.28,0,0,1,.28.14l0,.07a.25.25,0,0,0,.32.14,1.89,1.89,0,0,1,.62-.1h.34a.49.49,0,0,0,.48-.41,1.19,1.19,0,0,1,.3-.7,1.78,1.78,0,0,1,.55-.44.86.86,0,0,0,.51-.64,1.18,1.18,0,0,1,.51-.75l.82-.46.23-.15a1.44,1.44,0,0,0,.38-.32l.22-.26a.65.65,0,0,1,.34-.21.84.84,0,0,1,.39,0l.43,0a1.32,1.32,0,0,1,.56.13l.11.05a.22.22,0,0,0,.26-.05l.1-.06.46-.48a.43.43,0,0,1,.38-.13,1.25,1.25,0,0,1,.41.14,1,1,0,0,0,.54.15h.11a2.94,2.94,0,0,1,.71.09l.16,0a.42.42,0,0,0,.43-.15.1.1,0,0,1,.15,0,.18.18,0,0,1,.05.08.47.47,0,0,0,.33.43l.17.05a.93.93,0,0,1,.45.33,2,2,0,0,0,.38.43l.11.11a.51.51,0,0,0,.41.13h.64a1.81,1.81,0,0,1,.75.16.93.93,0,0,0,.71,0,1.66,1.66,0,0,1,.73-.07l.47.07a.85.85,0,0,1,.56.29l0,0a2.67,2.67,0,0,1,.32.4.41.41,0,0,0,.37.22h.66a.87.87,0,0,1,.46.11,2.27,2.27,0,0,1,.36.32l.11.14a.8.8,0,0,1,.18.57.31.31,0,0,0,.3.32l.22,0a.44.44,0,0,1,.36.25l.1.22.28.62a.56.56,0,0,1,0,.3.26.26,0,0,0,.1.24l.11.07a.5.5,0,0,1,.2.46l-.08.5,0,.22a.34.34,0,0,0,.13.32.51.51,0,0,1,.24.41v.21a.5.5,0,0,1-.1.33.5.5,0,0,0-.11.32l0,.25a.64.64,0,0,0,.22.43.7.7,0,0,1,.26.45,4.59,4.59,0,0,1,0,.7v.25a.69.69,0,0,0,0,.25.37.37,0,0,0,.14.2l.22.16a1.1,1.1,0,0,1,.45.57,1.72,1.72,0,0,1,.14.73v.09a1.89,1.89,0,0,1-.08.58.76.76,0,0,0,0,.54,1.23,1.23,0,0,1,.17.51,1,1,0,0,1-.06.6l0,.07a.94.94,0,0,1-.25.35c-.1.11-.21.17-.27.25a.26.26,0,0,0-.08.26l0,.16a1.3,1.3,0,0,1,0,.62v.09a1.76,1.76,0,0,1-.17.42.85.85,0,0,1-.32.33l-.17.1a.32.32,0,0,0-.13.24.41.41,0,0,1-.1.28l-.16.22a1,1,0,0,1-.4.32,3.34,3.34,0,0,0-.38.32,1.1,1.1,0,0,0-.23.44.37.37,0,0,1-.36.29h-.58a.44.44,0,0,0-.36.24,1.51,1.51,0,0,1-.24.4.84.84,0,0,0-.22.39.19.19,0,0,1-.24.17.26.26,0,0,0-.34.11,2.45,2.45,0,0,1-.4.51l-.07.07a.89.89,0,0,1-.49.19c-.2,0-.29.09-.32.22a1.43,1.43,0,0,0-.07.37,2,2,0,0,1-.1.35l-.06.06a4.6,4.6,0,0,1-.3.46l0,.07a1,1,0,0,1-.54.38,2.32,2.32,0,0,1-.71.11h-.15a.35.35,0,0,0-.29.17l-.07.11-.06.12-.14.24a.8.8,0,0,1-.49.39,2.57,2.57,0,0,1-.68.06l-.18,0a1,1,0,0,1-.43-.11.28.28,0,0,0-.32.11.72.72,0,0,1-.38.28l-.32.11a1.56,1.56,0,0,1-.68,0l-.17-.06a.6.6,0,0,1-.3-.1.55.55,0,0,0-.32-.07l-.15,0a1.52,1.52,0,0,1-.6-.06l-.29-.07a.55.55,0,0,1-.32-.24.43.43,0,0,0-.33-.22h-.34a.78.78,0,0,1-.54-.27l-.43-.4-.15-.13L20.37,35l-.14-.1a1.28,1.28,0,0,0-.57-.22L19,34.54a.86.86,0,0,1-.17,0l-.25,0a.55.55,0,0,1-.29-.22.23.23,0,0,0-.29-.1,2.77,2.77,0,0,1-.56.13h-.15a1.58,1.58,0,0,1-.8-.13,1.4,1.4,0,0,1-.59-.48.92.92,0,0,0-.56-.37l-.3-.06a1.72,1.72,0,0,1-.63-.26,1.13,1.13,0,0,1-.4-.46,1.41,1.41,0,0,1-.16-.54v-.08a.53.53,0,0,0-.37-.47,1.45,1.45,0,0,1-.59-.32.76.76,0,0,1-.24-.56l0-.47a.6.6,0,0,0-.18-.47.67.67,0,0,1-.22-.46l0-.39a6.13,6.13,0,0,0-.14-.84.54.54,0,0,1,.24-.61l.07-.06a.26.26,0,0,0,.09-.34l-.09-.11a.77.77,0,0,0-.32-.21.16.16,0,0,1-.11-.16l.11-.13a.22.22,0,0,0,0-.26.47.47,0,0,1-.14-.3L12,25a1.74,1.74,0,0,1,.06-.45.27.27,0,0,0-.12-.34Zm10.65-1.42a.21.21,0,0,0,0-.27.86.86,0,0,1-.25-.29L22.18,22a1.44,1.44,0,0,0-.28-.37l0,0a.77.77,0,0,1-.24-.32.33.33,0,0,1,0-.33l.06-.1a.77.77,0,0,0,.11-.39v0a.56.56,0,0,0-.11-.32,1.42,1.42,0,0,1-.11-.31v-.06a.44.44,0,0,1,.09-.38,1.16,1.16,0,0,0,.18-.43v0a.46.46,0,0,0,0-.36.37.37,0,0,1-.05-.34l.08-.22a1.44,1.44,0,0,1,.29-.51l.15-.16.11-.13.06-.07a.2.2,0,0,0,0-.26.51.51,0,0,1-.06-.32l0-.15a1.28,1.28,0,0,1,.25-.6l0,0a1.22,1.22,0,0,1,.6-.44l.3-.1a.36.36,0,0,0,.21-.33.84.84,0,0,1,.15-.46l.05-.05a6.32,6.32,0,0,0,.33-.56l.07-.14a.19.19,0,0,0,0-.11.32.32,0,0,0-.28-.35l-.47,0c-.27,0-.54,0-.8,0l-.92.11a.27.27,0,0,0-.26.26.34.34,0,0,1-.23.32l-.39.11L21,14l-.32.11a.91.91,0,0,0-.54.48l-.08.14a1.3,1.3,0,0,1-.52.57.81.81,0,0,0-.35.63v.1a1,1,0,0,1-.21.58l-.05.09a.36.36,0,0,0-.06.37.82.82,0,0,1,.08.41v.57a.37.37,0,0,1-.22.32.45.45,0,0,0-.29.32l-.05.22a.54.54,0,0,0,.21.56.89.89,0,0,1,.33.56v.19a.74.74,0,0,0,.34.54,1.21,1.21,0,0,1,.43.54l.05.17a.6.6,0,0,0,.5.4h.06a.57.57,0,0,1,.48.28.68.68,0,0,0,.47.32l.3.09a1.1,1.1,0,0,1,.5.29l0,0a.28.28,0,0,0,.38-.05l.07-.08Zm1.23-1a.16.16,0,0,0,.25-.07l0-.05a2.39,2.39,0,0,1,.27-.43l.22-.32s0,0,.05-.05l.26-.34a.55.55,0,0,1,.39-.18.34.34,0,0,0,.32-.22.91.91,0,0,1,.24-.41l.05-.06a1.26,1.26,0,0,1,.33-.22,2.85,2.85,0,0,1,.4,0h.32a.32.32,0,0,0,.3-.16.63.63,0,0,1,.27-.24l.11,0a2,2,0,0,1,.56-.15l.21,0a.81.81,0,0,1,.4.07.29.29,0,0,0,.36,0l.07,0a1.21,1.21,0,0,1,.54-.22h0a2.64,2.64,0,0,1,.63,0h.1a.83.83,0,0,1,.54.27l0,0a.66.66,0,0,0,.43.2h.19a.19.19,0,0,0,.14-.08.21.21,0,0,1,.13-.07h.11a1.5,1.5,0,0,1,.43.09l.19.08a3,3,0,0,0,.54.12h.13a.12.12,0,0,0,.13-.12.58.58,0,0,0-.07-.3l-.08-.18a4.25,4.25,0,0,1-.21-.43l0-.05a.31.31,0,0,1,0-.32v-.06a.18.18,0,0,0-.11-.21h-.09a1,1,0,0,1-.43-.29l-.1-.11a.93.93,0,0,1-.22-.43.35.35,0,0,0-.32-.25h-.46a.63.63,0,0,1-.4-.23l0-.06a1.52,1.52,0,0,1-.18-.36.23.23,0,0,0-.28-.14l-.13,0a1.57,1.57,0,0,1-.64.08l-.18,0a.8.8,0,0,1-.49-.18l-.11-.08-.27-.15a.21.21,0,0,0-.26.06l-.05.06a.82.82,0,0,1-.41.22l-.58,0a.41.41,0,0,0-.29.13.58.58,0,0,1-.29.15h0a.56.56,0,0,0-.31.15v0a.55.55,0,0,1-.4.16l0,0a1.23,1.23,0,0,0-.38,0h-.13a.47.47,0,0,0-.37.37l0,.25a1.15,1.15,0,0,1-.22.46.53.53,0,0,1-.4.22h-.18a.24.24,0,0,0-.19.27,1.64,1.64,0,0,1,0,.5l-.05.19a.48.48,0,0,1-.29.34l-.06,0h0a.16.16,0,0,0-.06.22.48.48,0,0,1,.08.32l0,.35a.88.88,0,0,1-.1.35.31.31,0,0,0,0,.32l.1.24a.45.45,0,0,1,0,.34.76.76,0,0,0-.05.33.31.31,0,0,0,.16.26Zm8.5,7.78a.31.31,0,0,0,.4.06l.21-.13a.68.68,0,0,0,.24-.33v0l.11-.32.06-.11,0-.11.05-.07a.33.33,0,0,1,.21-.19l0,0a.19.19,0,0,0,.15-.19.46.46,0,0,1,.1-.27l.09-.08.21-.27v0a.59.59,0,0,0,.13-.29.6.6,0,0,0,0-.32l0-.05a.75.75,0,0,1-.08-.27l0-.31,0-.32a.62.62,0,0,1,.11-.32,1.78,1.78,0,0,0,.17-.3v0l0,0c0-.11,0-.22-.13-.22a.45.45,0,0,1-.25-.27l0-.07a2.26,2.26,0,0,1-.09-.58l0-.53v0a.33.33,0,0,0-.33-.32h0a.7.7,0,0,1-.54-.22L33,22.88l-.22-.24-.28-.32a2.3,2.3,0,0,0-.36-.41.74.74,0,0,0-.42-.24l-.22,0a1.11,1.11,0,0,1-.36-.15.23.23,0,0,0-.31,0l-.14.15-.06.05a.15.15,0,0,1-.18-.11.49.49,0,0,1,0-.41v-.06a.11.11,0,0,0-.13-.11h-.18a1.22,1.22,0,0,1-.56-.11l-.11,0a.77.77,0,0,0-.36-.09.58.58,0,0,0-.32.09l0,0a1,1,0,0,1-.43.14H28a.69.69,0,0,0-.43.14,1.23,1.23,0,0,1-.45.17l-.29.05a.81.81,0,0,0-.39.18,1,1,0,0,1-.4.21l0,0a.79.79,0,0,0-.43.32l-.13.13a.3.3,0,0,0,0,.34.27.27,0,0,0,.32.11l.16-.07a.33.33,0,0,1,.26,0,.35.35,0,0,0,.26.08l.27,0a1.71,1.71,0,0,1,.45,0,1.35,1.35,0,0,1,.43.22.77.77,0,0,0,.43.17,1.87,1.87,0,0,1,.48.11l.1,0a.41.41,0,0,1,.26.21.65.65,0,0,1,.11.33v0a.22.22,0,0,0,.22.22h.06a2.05,2.05,0,0,1,.54.07l.07,0a.63.63,0,0,1,.29.22,1.16,1.16,0,0,1,.18.32l0,.15a2.81,2.81,0,0,1,0,.5v.05a.29.29,0,0,0,.2.26,1.52,1.52,0,0,1,.35.13l.05,0a1.22,1.22,0,0,1,.39.32l.06.08a.87.87,0,0,1,.21.57v.07a1.51,1.51,0,0,1-.08.48.23.23,0,0,0,.14.32l.07.06a1,1,0,0,1,.41.32.92.92,0,0,1,.15.54v.32a.72.72,0,0,1-.1.27.21.21,0,0,0,0,.26l.06.1Zm-6.89-5.51h0c-.05,0-.07.06-.06.11l.05.21a5.06,5.06,0,0,1,.08.52.67.67,0,0,0,.24.43h0a.69.69,0,0,1,.27.52v.54a.37.37,0,0,0,.07.3l.05.05a.72.72,0,0,1,.16.43l0,.59a.26.26,0,0,1-.21.28l-.11,0c-.07,0-.11.09-.11.17a1,1,0,0,0,.07.27v0a.85.85,0,0,1,0,.32l0,.29a1.89,1.89,0,0,1-.22.6l-.07.13a.52.52,0,0,1-.22.22.38.38,0,0,0-.22.23l-.08.39a2.61,2.61,0,0,1-.28.65h0a1.42,1.42,0,0,1-.49.42l-.13.09-.32.16a.32.32,0,0,0-.19.26l-.06.36a.79.79,0,0,1-.26.53l-.13.17-.17.16-.16.17a.58.58,0,0,1-.54.19L22,33.77l-.36-.05h-.1a.17.17,0,0,0,0,.18.41.41,0,0,0,.33.22l.23,0a.93.93,0,0,1,.35.1,1,1,0,0,0,.34.17h0a1.06,1.06,0,0,0,.43,0l.16,0a1,1,0,0,1,.51.06l.13,0a.18.18,0,0,0,.19-.05.83.83,0,0,1,.22-.14l.08,0a1.55,1.55,0,0,1,.43-.07H25a.68.68,0,0,1,.35.09l.05,0a.19.19,0,0,0,.22-.06.52.52,0,0,1,.18-.22l.26-.18.18-.11.09,0a.63.63,0,0,1,.38-.11l.39,0a.39.39,0,0,0,.32-.28,1.22,1.22,0,0,1,.22-.46,3,3,0,0,1,.32-.37.75.75,0,0,1,.43-.17h.09a.37.37,0,0,0,.29-.37v-.72a1.12,1.12,0,0,1,.12-.35l.22-.33.09-.11a2.32,2.32,0,0,0,.18-.21l.11-.14a.29.29,0,0,0,0-.34.8.8,0,0,1-.18-.41v-.05a1.43,1.43,0,0,1,0-.54v-.05a2.32,2.32,0,0,1,.22-.41.24.24,0,0,0,0-.34l-.19-.16a.8.8,0,0,1-.25-.52l0-.22a.82.82,0,0,0,0-.21l0-.16a.6.6,0,0,0-.28-.43l-.07,0a1.21,1.21,0,0,1-.31-.29,1.23,1.23,0,0,1-.16-.42l0-.18c0-.06,0-.1-.11-.13l-.51-.17a.55.55,0,0,1-.29-.18h0a.15.15,0,0,0-.24,0l-.11.1s0,.05-.07,0a.09.09,0,0,1-.09-.11.48.48,0,0,0-.18-.45l-.15-.11-.32-.21a.21.21,0,0,0-.26.1l0,.07s0,0,0,0-.11,0-.11-.05l0-.06a.35.35,0,0,0-.18-.13Zm-1.29,1.08L24,25.07c-.05,0-.1,0-.16,0a1.32,1.32,0,0,0-.17.41v0a.27.27,0,0,1-.29.22h-.13A.28.28,0,0,0,23,26a.88.88,0,0,1-.18.54l-.06.06a.88.88,0,0,1-.44.29l-.08,0a.32.32,0,0,0-.22.24.42.42,0,0,1-.15.3l-.11.09a.87.87,0,0,1-.51.24l-.54.05a.53.53,0,0,0-.43.27.65.65,0,0,1-.43.29l-.24,0a1.65,1.65,0,0,1-.54,0l-.1,0-.3-.08a.22.22,0,0,0-.25.08l-.11.14a.63.63,0,0,1-.54.21l-.7-.08a.65.65,0,0,1-.29-.11,1.12,1.12,0,0,1-.26-.22L16.26,28a.2.2,0,0,0-.14,0l-.15.06-.6.15a.44.44,0,0,1-.35-.06.56.56,0,0,0-.37-.11h-.14a.25.25,0,0,0-.18.3l.05.22a.5.5,0,0,1,0,.34.31.31,0,0,0,0,.33l.06.08a2.73,2.73,0,0,0,.33.35,2.62,2.62,0,0,1,.3.35l.16.29a.41.41,0,0,0,.39.24.69.69,0,0,1,.45.16l.32.3a.23.23,0,0,0,.3,0l.06,0a.1.1,0,0,1,.1.11v.06a.39.39,0,0,0,.25.32l.48.1a1.92,1.92,0,0,1,.51.22h.09a.16.16,0,0,0,.15-.17v-.38a.27.27,0,0,1,.13-.26l.05,0s.11.06.09.11v.18a.5.5,0,0,0,.14.37.33.33,0,0,0,.36.08.9.9,0,0,1,.4-.05l.4,0a1,1,0,0,0,.54-.08,1.51,1.51,0,0,0,.5-.27l.07,0,.32-.29a.54.54,0,0,1,.38-.16h.43a.51.51,0,0,0,.43-.43l0-.21a.55.55,0,0,1,.16-.38,1,1,0,0,1,.32-.22l.13-.05a.69.69,0,0,0,.39-.43l.06-.26a1.17,1.17,0,0,1,.33-.57l0,0a.39.39,0,0,0,.07-.47l0-.08a.45.45,0,0,1,0-.41,1.92,1.92,0,0,1,.19-.41l.11-.15a.3.3,0,0,0,0-.29.48.48,0,0,1-.11-.3l0-.15v-.37a.83.83,0,0,0,0-.35l-.05-.13Zm-1.54-.82v0a.16.16,0,0,0-.15-.18h-.28a.54.54,0,0,1-.31,0h-.48a2.91,2.91,0,0,1-.72-.1l-.26-.07-.21-.06-.49-.16a.93.93,0,0,1-.57-.49l0-.11a.37.37,0,0,0-.4-.21,1.14,1.14,0,0,1-.54-.09l-.13,0a.68.68,0,0,1-.43-.61l0-.29a.48.48,0,0,0-.26-.35,2.67,2.67,0,0,1-.43-.25l-.05,0a1.17,1.17,0,0,1-.38-.5l0-.07a1,1,0,0,1,0-.54l0-.06a1.54,1.54,0,0,0,0-.43.51.51,0,0,0-.15-.36l-.15-.14a.78.78,0,0,1-.29-.57,2.66,2.66,0,0,1,0-.69v-.06a.22.22,0,0,0-.21-.22h0a.37.37,0,0,0-.32.22,1.21,1.21,0,0,1-.24.39l0,.05-.32.32a.75.75,0,0,0-.2.43,1.55,1.55,0,0,1-.13.48l0,.05a.81.81,0,0,1-.24.33.44.44,0,0,0-.19.34l0,.49a1.81,1.81,0,0,1-.11.65l0,.08a.29.29,0,0,0,.13.36l.45.2,0,0s0,0,.05.05,0,.11,0,.11l-.11.05a.24.24,0,0,0-.13.17l0,.1v0l-.11.61a1.18,1.18,0,0,0,0,.27.22.22,0,0,0,.13.2l.24.11a2.53,2.53,0,0,1,.32.21l.11.09a.38.38,0,0,0,.12.1l.05.05a.41.41,0,0,1,.15.24l.11.49a.3.3,0,0,0,.21.27l.17.05a.1.1,0,0,1,.06,0l.21.07a1,1,0,0,1,.46.28,2,2,0,0,1,.36.4l0,0a.33.33,0,0,0,.34.13,1.39,1.39,0,0,1,.41,0h.16a.76.76,0,0,1,.37.1,3.17,3.17,0,0,0,.37.17h0a.4.4,0,0,0,.37-.05.68.68,0,0,1,.39-.13l.51,0a.3.3,0,0,0,.26-.1h0l.18-.17.06-.06a.48.48,0,0,1,.34-.16h.48a.37.37,0,0,0,.3-.21.43.43,0,0,1,.29-.22l.22-.05a.22.22,0,0,0,.19-.17.54.54,0,0,1,.16-.25l.18-.18a.57.57,0,0,0,.18-.34Z"/><rect class="cls-2" width="48" height="48"/></g></g></svg>