<svg xmlns="http://www.w3.org/2000/svg" viewBox="0 0 48 48">
  <defs>
    <style>.cls-1{fill:#2e2e2e;}.cls-2{fill:none;}</style>
  </defs>
  <g id="Layer_2" data-name="Layer 2">
    <g id="Layer_1-2" data-name="Layer 1">
      <path class="cls-1" d="M28.61,30.66l-3,2.93a2.8,2.8,0,0,1-2,.75,2.78,2.78,0,0,1-2.05-.75l-4.87-4.9a3,3,0,0,1-.79-2.09,2.85,2.85,0,0,1,.79-2.05l4.85-4.93a2.87,2.87,0,0,1,2.07-.72,2.8,2.8,0,0,1,2,.75l3,2.92a1.54,1.54,0,0,0,2.17-2.18l-2.92-3a5.69,5.69,0,0,0-2.75-1.5l2.77-2.81a1.54,1.54,0,0,0-2.18-2.18L14.35,22.29a6,6,0,0,0-1.68,4.31A6.1,6.1,0,0,0,14.35,31l4.89,4.9a6,6,0,0,0,4.31,1.63,6,6,0,0,0,4.3-1.67l2.93-3a1.54,1.54,0,0,0-2.17-2.18Zm5.29-5.52H22.5a1.51,1.51,0,0,0,0,3H33.9a1.51,1.51,0,0,0,0-3Z"/>
      <rect class="cls-2" width="48" height="48"/>
    </g>
  </g>
</svg>